# xmcd
#
# Track frame offsets:
#	150
#	11992
#	25860
#	40047
#	52835
#	69970
#	82590
#	99547
#	110327
#	123777
#	135703
#	147539
#	158033
#	170919
#	183870
#	195418
#	205896
#	224219
#	248470
#	264508
#	278389
#	287854
#	296034
#	309545
#	320117
#	332106
#
# Disc length: 4593 seconds
#
# Revision: 0
# Processed by: cddbd v1.5.2PL0 Copyright (c) Steve Scherf et al.
# Submitted via: audiograbber 1.83.01
#
DISCID=7d11ef1a
DTITLE=Johnny Cash - Greatest Hits
DYEAR=1900
DGENRE=Country
TTITLE0=I Walk The Line
TTITLE1=Big River
TTITLE2=Don't Take Your Guns To Town
TTITLE3=I Got Stripes
TTITLE4=Five Feet High And Rising
TTITLE5=Tennessee Flat-Top Box
TTITLE6=Bonanza
TTITLE7=Ring Of Fire
TTITLE8=Understand Your Man
TTITLE9=It Ain't Me Babe
TTITLE10=Orange Blossom Special
TTITLE11=The One On The Right Is On The Left
TTITLE12=(Ghost) Riders In The Sky
TTITLE13=Jackson (With June Carter)
TTITLE14=A Boy Named Sue (Live)
TTITLE15=Daddy Sang Bass
TTITLE16=If I Were A Carpenter (With June Carter)
TTITLE17=What Is Truth
TTITLE18=Flesh And Blood
TTITLE19=Wanted Man
TTITLE20=Man In Black
TTITLE21=A Thing Called Love
TTITLE22=Kate
TTITLE23=One Piece At A Time
TTITLE24=Highway Patrolman
TTITLE25=Johnny 99
EXTD=
EXTT0=
EXTT1=
EXTT2=
EXTT3=
EXTT4=
EXTT5=
EXTT6=
EXTT7=
EXTT8=
EXTT9=
EXTT10=
EXTT11=
EXTT12=
EXTT13=
EXTT14=
EXTT15=
EXTT16=
EXTT17=
EXTT18=
EXTT19=
EXTT20=
EXTT21=
EXTT22=
EXTT23=
EXTT24=
EXTT25=
PLAYORDER=
